<svg xmlns="http://www.w3.org/2000/svg" viewBox="0 0 16 10" shape-rendering="crispEdges" width="32" height="20">
  <rect width="16" height="10" fill="#F4EDE3"/>
  <g fill="#0B0B0B">
    <rect x="5" y="0" width="4" height="1"/>
    <rect x="4" y="1" width="6" height="1"/>
    <rect x="3" y="2" width="8" height="1"/>
    <rect x="3" y="3" width="2" height="1"/>
    <rect x="6" y="3" width="2" height="1"/>
    <rect x="9" y="3" width="2" height="1"/>
    <rect x="3" y="4" width="8" height="1"/>
    <rect x="3" y="5" width="10" height="1"/>
    <rect x="3" y="6" width="8" height="1"/>
    <rect x="4" y="7" width="6" height="1"/>
    <rect x="3" y="8" width="1" height="1"/>
    <rect x="5" y="8" width="1" height="1"/>
    <rect x="7" y="8" width="1" height="1"/>
    <rect x="9" y="8" width="1" height="1"/>
    <rect x="2" y="9" width="1" height="1"/>
    <rect x="4" y="9" width="1" height="1"/>
    <rect x="6" y="9" width="1" height="1"/>
    <rect x="8" y="9" width="1" height="1"/>
    <rect x="10" y="9" width="1" height="1"/>
  </g>
  <g fill="#C8854A">
    <rect x="11" y="6" width="1" height="1"/>
    <rect x="13" y="4" width="3" height="1"/>
    <rect x="13" y="5" width="1" height="1"/>
    <rect x="15" y="5" width="1" height="1"/>
    <rect x="13" y="6" width="3" height="1"/>
  </g>
</svg>
